<svg xmlns="http://www.w3.org/2000/svg" version="1.1" xmlns:xlink="http://www.w3.org/1999/xlink" xmlns:svgjs="http://svgjs.dev/svgjs" width="1000" height="750" viewBox="0 0 1000 750"><rect width="1000" height="750" fill="#ffffff"></rect><g transform="matrix(0.5770750988142292,0,0,0.5770750988142292,211.97254856325776,83.23643724696356)"><svg viewBox="0 0 244 247" data-background-color="#ffffff" preserveAspectRatio="xMidYMid meet" height="1012" width="1000" xmlns="http://www.w3.org/2000/svg" xmlns:xlink="http://www.w3.org/1999/xlink"><g id="tight-bounds" transform="matrix(1,0,0,1,-0.21568060210293538,-0.09999999999999432)"><svg viewBox="0 0 244.43135999999998 247.2" height="247.2" width="244.43135999999998"><g><svg></svg></g><g><svg viewBox="0 0 244.43135999999998 247.2" height="247.2" width="244.43135999999998"><g transform="matrix(1,0,0,1,0,77.38688774818402)"><svg viewBox="0 0 244.43135999999998 92.42622450363196" height="92.42622450363196" width="244.43135999999998"><g><svg viewBox="0 0 244.43135999999998 92.42622450363196" height="92.42622450363196" width="244.43135999999998"><g><svg viewBox="0 0 244.43135999999998 92.42622450363196" height="92.42622450363196" width="244.43135999999998"><g><svg viewBox="0 0 244.43135999999998 92.42622450363196" height="92.42622450363196" width="244.43135999999998"><g id="textblocktransform"><svg viewBox="0 0 244.43135999999998 92.42622450363196" height="92.42622450363196" width="244.43135999999998" id="textblock"><g><svg viewBox="0 0 244.43135999999998 92.42622450363196" height="92.42622450363196" width="244.43135999999998"><g transform="matrix(1,0,0,1,0,0)"><svg width="244.43135999999998" viewBox="1.75 -36 123.88999938964844 46.849998474121094" height="92.42622450363196" data-palette-color="#006699"><path d="M1.75-11.85Q1.75-15.2 2.68-17.75 3.6-20.3 5.23-22.03 6.85-23.75 9.05-24.63 11.25-25.5 13.8-25.5L13.8-25.5Q16.05-25.5 17.63-24.95 19.2-24.4 20.2-23.45 21.2-22.5 21.68-21.2 22.15-19.9 22.15-18.4L22.15-18.4Q22.15-16.6 21.15-14.98 20.15-13.35 18.28-12.13 16.4-10.9 13.75-10.18 11.1-9.45 7.8-9.4L7.8-9.4Q7.95-8.25 8.28-7.23 8.6-6.2 9.22-5.43 9.85-4.65 10.85-4.2 11.85-3.75 13.35-3.75L13.35-3.75Q14.45-3.75 15.7-4 16.95-4.25 18-4.6L18-4.6Q19.25-5 20.45-5.5L20.45-5.5 21.95-1.95Q20.65-1.3 19.15-0.8L19.15-0.8Q17.85-0.35 16.15 0 14.45 0.35 12.55 0.35L12.55 0.35Q9.65 0.35 7.6-0.53 5.55-1.4 4.25-3 2.95-4.6 2.35-6.85 1.75-9.1 1.75-11.85L1.75-11.85ZM13.35-21.6Q11.7-21.6 10.63-20.83 9.55-20.05 8.9-18.82 8.25-17.6 7.98-16.07 7.7-14.55 7.65-13L7.65-13Q10.05-13.1 11.73-13.63 13.4-14.15 14.45-14.93 15.5-15.7 15.98-16.6 16.45-17.5 16.45-18.4L16.45-18.4Q16.45-19.85 15.6-20.73 14.75-21.6 13.35-21.6L13.35-21.6ZM25.15-13.9L25.15-18.05 39.3-18.05 39.3-13.9 25.15-13.9ZM52.4-25.5L52.4-25.5Q53.84-25.5 55.25-25.2 56.65-24.9 57.75-24.5L57.75-24.5Q59.05-24.05 60.15-23.55L60.15-23.55 58.45-19.65Q57.45-20.1 56.45-20.45L56.45-20.45Q55.59-20.75 54.57-21.03 53.55-21.3 52.55-21.3L52.55-21.3Q51.4-21.3 50.57-20.75 49.75-20.2 49.75-19.1L49.75-19.1Q49.75-16.25 53.9-14.65L53.9-14.65Q55.45-14.05 56.7-13.38 57.95-12.7 58.82-11.8 59.7-10.9 60.15-9.73 60.59-8.55 60.59-6.95L60.59-6.95Q60.59-5.55 60.02-4.2 59.45-2.85 58.32-1.8 57.2-0.75 55.57-0.13 53.95 0.5 51.9 0.5L51.9 0.5Q50.25 0.5 48.65 0.13 47.05-0.25 45.77-0.7 44.5-1.15 43.75-1.55L43.75-1.55 43-1.9 44.84-6.1 45.5-5.75Q46.15-5.35 47.15-4.9 48.15-4.45 49.3-4.08 50.45-3.7 51.4-3.7L51.4-3.7Q53.15-3.7 54-4.4 54.84-5.1 54.84-6.25L54.84-6.25Q54.84-7.55 53.92-8.63 53-9.7 51.15-10.4L51.15-10.4Q47.3-11.85 45.62-13.7 43.95-15.55 43.95-18.5L43.95-18.5Q43.95-19.9 44.59-21.18 45.25-22.45 46.37-23.43 47.5-24.4 49.05-24.95 50.59-25.5 52.4-25.5ZM70.89 0.2Q68.24 0.2 66.84-1.38 65.44-2.95 65.44-5.45L65.44-5.45 65.44-24.9 71.14-24.9 71.14-5.95Q71.14-4.8 71.49-4.4 71.84-4 72.54-4L72.54-4Q72.74-4 72.97-4 73.19-4 73.39-4.05L73.39-4.05Q73.59-4.05 73.84-4.1L73.84-4.1 74.44-0.5Q74.09-0.3 73.54-0.15L73.54-0.15Q73.09 0 72.42 0.1 71.74 0.2 70.89 0.2L70.89 0.2ZM68.39-36Q69.99-36 70.84-35.05 71.69-34.1 71.69-32.6L71.69-32.6Q71.69-31.1 70.82-30.1 69.94-29.1 68.24-29.1L68.24-29.1Q66.64-29.1 65.77-30.08 64.89-31.05 64.89-32.45L64.89-32.45Q64.89-34 65.77-35 66.64-36 68.39-36L68.39-36ZM80.79 8.75L82.19 4.4Q82.94 4.7 83.79 5.03 84.64 5.35 85.59 5.65 86.54 5.95 87.52 6.15 88.49 6.35 89.44 6.35L89.44 6.35Q92.24 6.35 93.49 4.67 94.74 3 94.74 0.35L94.74 0.35Q94.74-2.25 93.64-4.9L93.64-4.9Q92.79-2.35 90.97-1.03 89.14 0.3 86.14 0.3L86.14 0.3Q83.79 0.3 82.07-0.58 80.34-1.45 79.19-3.08 78.04-4.7 77.49-7 76.94-9.3 76.94-12.1L76.94-12.1Q76.94-14.95 77.82-17.38 78.69-19.8 80.27-21.55 81.84-23.3 84.04-24.3 86.24-25.3 88.89-25.3L88.89-25.3Q90.09-25.3 91.47-25.15 92.84-25 94.17-24.78 95.49-24.55 96.67-24.3 97.84-24.05 98.69-23.85L98.69-23.85 98.44-10.1Q98.39-8.6 98.62-7.35 98.84-6.1 99.14-4.88 99.44-3.65 99.69-2.4 99.94-1.15 99.94 0.35L99.94 0.35Q99.94 5.65 97.24 8.25 94.54 10.85 89.94 10.85L89.94 10.85Q88.44 10.85 86.94 10.58 85.44 10.3 84.17 9.95 82.89 9.6 81.99 9.25 81.09 8.9 80.79 8.75L80.79 8.75ZM87.09-3.7Q88.29-3.7 89.32-4.5 90.34-5.3 91.14-6.63 91.94-7.95 92.39-9.65 92.84-11.35 92.84-13.15L92.84-13.15 92.84-20.75Q92.34-20.9 91.34-21.1 90.34-21.3 89.54-21.3L89.54-21.3Q87.64-21.3 86.42-20.65 85.19-20 84.44-18.85 83.69-17.7 83.39-16.1 83.09-14.5 83.09-12.6L83.09-12.6Q83.09-10.85 83.19-9.25 83.29-7.65 83.72-6.4 84.14-5.15 84.94-4.42 85.74-3.7 87.09-3.7L87.09-3.7ZM125.64 0L119.99 0 119.99-16.15Q119.99-18.25 119.24-19.53 118.49-20.8 116.69-20.8L116.69-20.8Q115.54-20.8 114.46-20.23 113.39-19.65 112.54-18.55 111.69-17.45 111.16-15.88 110.64-14.3 110.64-12.35L110.64-12.35 110.64 0 104.94 0 104.94-12.6Q104.94-15.6 104.54-17.63 104.14-19.65 103.69-20.9L103.69-20.9Q103.14-22.35 102.49-23.25L102.49-23.25 106.99-25.05Q107.49-24.5 107.99-23.7L107.99-23.7Q108.39-23 108.79-21.98 109.19-20.95 109.44-19.65L109.44-19.65Q110.74-22.65 113.19-23.98 115.64-25.3 118.34-25.3L118.34-25.3Q122.19-25.3 123.91-22.98 125.64-20.65 125.64-16.7L125.64-16.7 125.64 0Z" opacity="1" transform="matrix(1,0,0,1,0,0)" fill="#006699" class="undefined-text-0" data-fill-palette-color="primary" id="text-0"></path></svg></g></svg></g></svg></g></svg></g><g></g></svg></g></svg></g></svg></g><path d="M0 71.387L0 1 244.431 1 244.431 71.387 236.096 71.387 236.096 9.335 8.335 9.335 8.335 71.387 0 71.387M0 175.813L0 246.2 244.431 246.2 244.431 175.813 236.096 175.813 236.096 237.865 8.335 237.865 8.335 175.813 0 175.813" fill="#006699" stroke="transparent" data-fill-palette-color="primary"></path></svg></g><defs></defs></svg><rect width="244.43135999999998" height="247.2" fill="none" stroke="none" visibility="hidden"></rect></g></svg></g></svg>