<svg xmlns="http://www.w3.org/2000/svg" xmlns:xlink="http://www.w3.org/1999/xlink" width="45" height="45" viewBox="0 0 45 45">
  <defs>
    <linearGradient id="linear-gradient" y1="1" x2="0.967" gradientUnits="objectBoundingBox">
      <stop offset="0" stop-color="#00172d"/>
      <stop offset="0" stop-color="#003263"/>
      <stop offset="1" stop-color="#0052a2"/>
    </linearGradient>
  </defs>
  <g id="profile_edit" transform="translate(-1 -0.818)">
    <path id="Path_8586" data-name="Path 8586" d="M35.187,44.132H7.445A5.952,5.952,0,0,1,1.5,38.187V10.445A5.952,5.952,0,0,1,7.445,4.5H21.316a1.982,1.982,0,0,1,0,3.963H7.445a1.984,1.984,0,0,0-1.982,1.982V38.187a1.984,1.984,0,0,0,1.982,1.982H35.187a1.984,1.984,0,0,0,1.982-1.982V24.316a1.982,1.982,0,0,1,3.963,0V38.187A5.952,5.952,0,0,1,35.187,44.132Z" transform="translate(0 1.186)" stroke="rgba(0,0,0,0)" stroke-width="1" fill="url(#linear-gradient)"/>
    <path id="Path_8587" data-name="Path 8587" d="M37.268,1.318A6.427,6.427,0,0,1,41.813,12.29L22.251,31.851a2.059,2.059,0,0,1-.957.542l-8.236,2.059a2.059,2.059,0,0,1-2.5-2.5l2.059-8.236a2.059,2.059,0,0,1,.542-.957L32.723,3.2A6.385,6.385,0,0,1,37.268,1.318ZM19.743,28.536,38.9,9.378a2.309,2.309,0,1,0-3.265-3.265L16.477,25.27l-1.088,4.354Z" transform="translate(1.805 0)" stroke="rgba(0,0,0,0)" stroke-width="1" fill="url(#linear-gradient)"/>
  </g>
</svg>
